<?xml version="1.0" standalone="no"?>
<!DOCTYPE svg PUBLIC "-//W3C//DTD SVG 20010904//EN"
 "http://www.w3.org/TR/2001/REC-SVG-20010904/DTD/svg10.dtd">
<svg version="1.0" xmlns="http://www.w3.org/2000/svg"
 width="16.000000pt" height="16.000000pt" viewBox="0 0 16.000000 16.000000"
 preserveAspectRatio="xMidYMid meet">
<metadata>
Created by potrace 1.11, written by Peter Selinger 2001-2013
</metadata>
<g transform="translate(0.000000,16.000000) scale(0.002286,-0.002286)"
fill="#000000" stroke="none">
<path d="M2908 5587 c-103 -47 -139 -181 -69 -267 56 -71 -106 -65 1891 -65
l1805 0 32 23 c50 36 75 77 79 135 5 64 -15 107 -69 151 l-39 31 -1801 2
c-1368 1 -1808 -1 -1829 -10z"/>
<path d="M1170 5416 c-46 -13 -770 -729 -800 -792 -34 -70 -20 -147 37 -200
50 -46 121 -59 186 -33 18 7 124 104 242 222 l210 209 3 -752 c1 -413 1 -1087
0 -1496 l-3 -744 -205 205 c-113 112 -220 212 -238 220 -94 46 -215 -6 -242
-104 -15 -53 -12 -80 10 -125 29 -59 733 -760 789 -784 49 -22 97 -20 150 8
20 10 201 185 402 387 391 393 397 401 386 485 -17 124 -152 189 -260 124 -23
-14 -130 -113 -237 -221 l-195 -196 -3 745 c-1 409 -1 1082 0 1495 l3 751 205
-203 c113 -112 220 -212 239 -221 140 -73 297 75 236 222 -19 43 -733 764
-780 786 -41 20 -93 24 -135 12z"/>
<path d="M2898 4180 c-20 -11 -49 -36 -65 -57 -23 -31 -28 -46 -28 -99 0 -54
4 -67 30 -100 17 -20 46 -45 65 -55 33 -18 103 -19 1820 -19 1723 0 1786 1
1826 19 123 56 138 214 27 298 l-36 28 -1801 2 c-1769 2 -1802 2 -1838 -17z"/>
<path d="M2922 2792 c-35 -11 -87 -57 -105 -93 -22 -46 -16 -128 12 -168 12
-16 36 -41 54 -53 l32 -23 1798 -3 c1753 -2 1798 -2 1835 17 123 63 136 214
25 298 l-36 28 -1796 2 c-988 0 -1806 -2 -1819 -5z"/>
<path d="M2900 1381 c-70 -38 -99 -90 -96 -169 3 -60 38 -112 96 -143 33 -18
103 -19 1820 -19 1723 0 1786 1 1826 19 88 40 128 146 85 229 -11 22 -37 53
-58 69 l-36 28 -1801 2 c-1741 2 -1802 2 -1836 -16z"/>
</g>
</svg>
